<svg width="308" height="55" viewBox="0 0 308 55" fill="currentColor" xmlns="http://www.w3.org/2000/svg">
<path d="M3.213 19.436H7.208V21H1.275V9.185H3.213V19.436ZM12.8917 21.153C12.0077 21.153 11.2087 20.9547 10.4947 20.558C9.78071 20.15 9.21971 19.5833 8.81171 18.858C8.40371 18.1213 8.19971 17.2713 8.19971 16.308C8.19971 15.356 8.40938 14.5117 8.82871 13.775C9.24804 13.0383 9.82038 12.4717 10.5457 12.075C11.271 11.6783 12.0814 11.48 12.9767 11.48C13.872 11.48 14.6824 11.6783 15.4077 12.075C16.133 12.4717 16.7054 13.0383 17.1247 13.775C17.544 14.5117 17.7537 15.356 17.7537 16.308C17.7537 17.26 17.5384 18.1043 17.1077 18.841C16.677 19.5777 16.0877 20.15 15.3397 20.558C14.603 20.9547 13.787 21.153 12.8917 21.153ZM12.8917 19.47C13.3904 19.47 13.855 19.351 14.2857 19.113C14.7277 18.875 15.0847 18.518 15.3567 18.042C15.6287 17.566 15.7647 16.988 15.7647 16.308C15.7647 15.628 15.6344 15.0557 15.3737 14.591C15.113 14.115 14.7674 13.758 14.3367 13.52C13.906 13.282 13.4414 13.163 12.9427 13.163C12.444 13.163 11.9794 13.282 11.5487 13.52C11.1294 13.758 10.795 14.115 10.5457 14.591C10.2964 15.0557 10.1717 15.628 10.1717 16.308C10.1717 17.3167 10.4267 18.0987 10.9367 18.654C11.458 19.198 12.1097 19.47 12.8917 19.47ZM21.6075 12.993C21.8909 12.517 22.2649 12.1487 22.7295 11.888C23.2055 11.616 23.7665 11.48 24.4125 11.48V13.486H23.9195C23.1602 13.486 22.5822 13.6787 22.1855 14.064C21.8002 14.4493 21.6075 15.118 21.6075 16.07V21H19.6695V11.633H21.6075V12.993ZM34.7789 16.087C34.7789 16.4383 34.7563 16.7557 34.7109 17.039H27.5539C27.6106 17.787 27.8883 18.3877 28.3869 18.841C28.8856 19.2943 29.4976 19.521 30.2229 19.521C31.2656 19.521 32.0023 19.0847 32.4329 18.212H34.5239C34.2406 19.0733 33.7249 19.7817 32.9769 20.337C32.2403 20.881 31.3223 21.153 30.2229 21.153C29.3276 21.153 28.5229 20.9547 27.8089 20.558C27.1063 20.15 26.5509 19.5833 26.1429 18.858C25.7463 18.1213 25.5479 17.2713 25.5479 16.308C25.5479 15.3447 25.7406 14.5003 26.1259 13.775C26.5226 13.0383 27.0723 12.4717 27.7749 12.075C28.4889 11.6783 29.3049 11.48 30.2229 11.48C31.1069 11.48 31.8946 11.6727 32.5859 12.058C33.2773 12.4433 33.8156 12.9873 34.2009 13.69C34.5863 14.3813 34.7789 15.1803 34.7789 16.087ZM32.7559 15.475C32.7446 14.761 32.4896 14.1887 31.9909 13.758C31.4923 13.3273 30.8746 13.112 30.1379 13.112C29.4693 13.112 28.8969 13.3273 28.4209 13.758C27.9449 14.1773 27.6616 14.7497 27.5709 15.475H32.7559ZM48.0251 11.48C48.7618 11.48 49.4191 11.633 49.9971 11.939C50.5865 12.245 51.0455 12.6983 51.3741 13.299C51.7141 13.8997 51.8841 14.625 51.8841 15.475V21H49.9631V15.764C49.9631 14.9253 49.7535 14.285 49.3341 13.843C48.9148 13.3897 48.3425 13.163 47.6171 13.163C46.8918 13.163 46.3138 13.3897 45.8831 13.843C45.4638 14.285 45.2541 14.9253 45.2541 15.764V21H43.3331V15.764C43.3331 14.9253 43.1235 14.285 42.7041 13.843C42.2848 13.3897 41.7125 13.163 40.9871 13.163C40.2618 13.163 39.6838 13.3897 39.2531 13.843C38.8338 14.285 38.6241 14.9253 38.6241 15.764V21H36.6861V11.633H38.6241V12.704C38.9415 12.3187 39.3438 12.0183 39.8311 11.803C40.3185 11.5877 40.8398 11.48 41.3951 11.48C42.1431 11.48 42.8118 11.6387 43.4011 11.956C43.9905 12.2733 44.4438 12.7323 44.7611 13.333C45.0445 12.7663 45.4865 12.3187 46.0871 11.99C46.6878 11.65 47.3338 11.48 48.0251 11.48ZM60.7042 9.185V21H58.7662V9.185H60.7042ZM65.1866 13.01C65.5153 12.5793 65.963 12.2167 66.5296 11.922C67.0963 11.6273 67.7366 11.48 68.4506 11.48C69.2666 11.48 70.009 11.684 70.6776 12.092C71.3576 12.4887 71.8903 13.0497 72.2756 13.775C72.661 14.5003 72.8536 15.3333 72.8536 16.274C72.8536 17.2147 72.661 18.059 72.2756 18.807C71.8903 19.5437 71.3576 20.1217 70.6776 20.541C70.009 20.949 69.2666 21.153 68.4506 21.153C67.7366 21.153 67.102 21.0113 66.5466 20.728C65.9913 20.4333 65.538 20.0707 65.1866 19.64V25.454H63.2486V11.633H65.1866V13.01ZM70.8816 16.274C70.8816 15.628 70.7456 15.0727 70.4736 14.608C70.213 14.132 69.8616 13.775 69.4196 13.537C68.989 13.2877 68.5243 13.163 68.0256 13.163C67.5383 13.163 67.0736 13.2877 66.6316 13.537C66.201 13.7863 65.8496 14.149 65.5776 14.625C65.317 15.101 65.1866 15.662 65.1866 16.308C65.1866 16.954 65.317 17.5207 65.5776 18.008C65.8496 18.484 66.201 18.8467 66.6316 19.096C67.0736 19.3453 67.5383 19.47 68.0256 19.47C68.5243 19.47 68.989 19.3453 69.4196 19.096C69.8616 18.8353 70.213 18.4613 70.4736 17.974C70.7456 17.4867 70.8816 16.92 70.8816 16.274ZM78.1701 21.153C77.4335 21.153 76.7705 21.0227 76.1811 20.762C75.6031 20.49 75.1441 20.1273 74.8041 19.674C74.4641 19.2093 74.2828 18.6937 74.2601 18.127H76.2661C76.3001 18.5237 76.4871 18.858 76.8271 19.13C77.1785 19.3907 77.6148 19.521 78.1361 19.521C78.6801 19.521 79.0995 19.419 79.3941 19.215C79.7001 18.9997 79.8531 18.7277 79.8531 18.399C79.8531 18.0477 79.6831 17.787 79.3431 17.617C79.0145 17.447 78.4875 17.26 77.7621 17.056C77.0595 16.8633 76.4871 16.6763 76.0451 16.495C75.6031 16.3137 75.2178 16.036 74.8891 15.662C74.5718 15.288 74.4131 14.795 74.4131 14.183C74.4131 13.6843 74.5605 13.231 74.8551 12.823C75.1498 12.4037 75.5691 12.075 76.1131 11.837C76.6685 11.599 77.3031 11.48 78.0171 11.48C79.0825 11.48 79.9381 11.752 80.5841 12.296C81.2415 12.8287 81.5928 13.5597 81.6381 14.489H79.7001C79.6661 14.0697 79.4961 13.7353 79.1901 13.486C78.8841 13.2367 78.4705 13.112 77.9491 13.112C77.4391 13.112 77.0481 13.2083 76.7761 13.401C76.5041 13.5937 76.3681 13.8487 76.3681 14.166C76.3681 14.4153 76.4588 14.625 76.6401 14.795C76.8215 14.965 77.0425 15.101 77.3031 15.203C77.5638 15.2937 77.9491 15.4127 78.4591 15.56C79.1391 15.7413 79.6945 15.9283 80.1251 16.121C80.5671 16.3023 80.9468 16.5743 81.2641 16.937C81.5815 17.2997 81.7458 17.7813 81.7571 18.382C81.7571 18.9147 81.6098 19.3907 81.3151 19.81C81.0205 20.2293 80.6011 20.558 80.0571 20.796C79.5245 21.034 78.8955 21.153 78.1701 21.153ZM92.3342 11.633V21H90.3962V19.895C90.0902 20.2803 89.6878 20.5863 89.1892 20.813C88.7018 21.0283 88.1805 21.136 87.6252 21.136C86.8885 21.136 86.2255 20.983 85.6362 20.677C85.0582 20.371 84.5992 19.9177 84.2592 19.317C83.9305 18.7163 83.7662 17.991 83.7662 17.141V11.633H85.6872V16.852C85.6872 17.6907 85.8968 18.3367 86.3162 18.79C86.7355 19.232 87.3078 19.453 88.0332 19.453C88.7585 19.453 89.3308 19.232 89.7502 18.79C90.1808 18.3367 90.3962 17.6907 90.3962 16.852V11.633H92.3342ZM106.23 11.48C106.967 11.48 107.624 11.633 108.202 11.939C108.792 12.245 109.251 12.6983 109.579 13.299C109.919 13.8997 110.089 14.625 110.089 15.475V21H108.168V15.764C108.168 14.9253 107.959 14.285 107.539 13.843C107.12 13.3897 106.548 13.163 105.822 13.163C105.097 13.163 104.519 13.3897 104.088 13.843C103.669 14.285 103.459 14.9253 103.459 15.764V21H101.538V15.764C101.538 14.9253 101.329 14.285 100.909 13.843C100.49 13.3897 99.9175 13.163 99.1922 13.163C98.4669 13.163 97.8889 13.3897 97.4582 13.843C97.0389 14.285 96.8292 14.9253 96.8292 15.764V21H94.8912V11.633H96.8292V12.704C97.1465 12.3187 97.5489 12.0183 98.0362 11.803C98.5235 11.5877 99.0449 11.48 99.6002 11.48C100.348 11.48 101.017 11.6387 101.606 11.956C102.196 12.2733 102.649 12.7323 102.966 13.333C103.25 12.7663 103.692 12.3187 104.292 11.99C104.893 11.65 105.539 11.48 106.23 11.48ZM117.957 10.392C117.606 10.392 117.311 10.273 117.073 10.035C116.835 9.797 116.716 9.50233 116.716 9.151C116.716 8.79967 116.835 8.505 117.073 8.267C117.311 8.029 117.606 7.91 117.957 7.91C118.297 7.91 118.586 8.029 118.824 8.267C119.062 8.505 119.181 8.79967 119.181 9.151C119.181 9.50233 119.062 9.797 118.824 10.035C118.586 10.273 118.297 10.392 117.957 10.392ZM118.909 11.633V21H116.971V11.633H118.909ZM124.854 21.153C124.117 21.153 123.454 21.0227 122.865 20.762C122.287 20.49 121.828 20.1273 121.488 19.674C121.148 19.2093 120.966 18.6937 120.944 18.127H122.95C122.984 18.5237 123.171 18.858 123.511 19.13C123.862 19.3907 124.298 19.521 124.82 19.521C125.364 19.521 125.783 19.419 126.078 19.215C126.384 18.9997 126.537 18.7277 126.537 18.399C126.537 18.0477 126.367 17.787 126.027 17.617C125.698 17.447 125.171 17.26 124.446 17.056C123.743 16.8633 123.171 16.6763 122.729 16.495C122.287 16.3137 121.901 16.036 121.573 15.662C121.255 15.288 121.097 14.795 121.097 14.183C121.097 13.6843 121.244 13.231 121.539 12.823C121.833 12.4037 122.253 12.075 122.797 11.837C123.352 11.599 123.987 11.48 124.701 11.48C125.766 11.48 126.622 11.752 127.268 12.296C127.925 12.8287 128.276 13.5597 128.322 14.489H126.384C126.35 14.0697 126.18 13.7353 125.874 13.486C125.568 13.2367 125.154 13.112 124.633 13.112C124.123 13.112 123.732 13.2083 123.46 13.401C123.188 13.5937 123.052 13.8487 123.052 14.166C123.052 14.4153 123.142 14.625 123.324 14.795C123.505 14.965 123.726 15.101 123.987 15.203C124.247 15.2937 124.633 15.4127 125.143 15.56C125.823 15.7413 126.378 15.9283 126.809 16.121C127.251 16.3023 127.63 16.5743 127.948 16.937C128.265 17.2997 128.429 17.7813 128.441 18.382C128.441 18.9147 128.293 19.3907 127.999 19.81C127.704 20.2293 127.285 20.558 126.741 20.796C126.208 21.034 125.579 21.153 124.854 21.153ZM138.351 21.153C137.614 21.153 136.951 21.0227 136.362 20.762C135.784 20.49 135.325 20.1273 134.985 19.674C134.645 19.2093 134.463 18.6937 134.441 18.127H136.447C136.481 18.5237 136.668 18.858 137.008 19.13C137.359 19.3907 137.795 19.521 138.317 19.521C138.861 19.521 139.28 19.419 139.575 19.215C139.881 18.9997 140.034 18.7277 140.034 18.399C140.034 18.0477 139.864 17.787 139.524 17.617C139.195 17.447 138.668 17.26 137.943 17.056C137.24 16.8633 136.668 16.6763 136.226 16.495C135.784 16.3137 135.398 16.036 135.07 15.662C134.752 15.288 134.594 14.795 134.594 14.183C134.594 13.6843 134.741 13.231 135.036 12.823C135.33 12.4037 135.75 12.075 136.294 11.837C136.849 11.599 137.484 11.48 138.198 11.48C139.263 11.48 140.119 11.752 140.765 12.296C141.422 12.8287 141.773 13.5597 141.819 14.489H139.881C139.847 14.0697 139.677 13.7353 139.371 13.486C139.065 13.2367 138.651 13.112 138.13 13.112C137.62 13.112 137.229 13.2083 136.957 13.401C136.685 13.5937 136.549 13.8487 136.549 14.166C136.549 14.4153 136.639 14.625 136.821 14.795C137.002 14.965 137.223 15.101 137.484 15.203C137.744 15.2937 138.13 15.4127 138.64 15.56C139.32 15.7413 139.875 15.9283 140.306 16.121C140.748 16.3023 141.127 16.5743 141.445 16.937C141.762 17.2997 141.926 17.7813 141.938 18.382C141.938 18.9147 141.79 19.3907 141.496 19.81C141.201 20.2293 140.782 20.558 140.238 20.796C139.705 21.034 139.076 21.153 138.351 21.153ZM145.018 10.392C144.667 10.392 144.372 10.273 144.134 10.035C143.896 9.797 143.777 9.50233 143.777 9.151C143.777 8.79967 143.896 8.505 144.134 8.267C144.372 8.029 144.667 7.91 145.018 7.91C145.358 7.91 145.647 8.029 145.885 8.267C146.123 8.505 146.242 8.79967 146.242 9.151C146.242 9.50233 146.123 9.797 145.885 10.035C145.647 10.273 145.358 10.392 145.018 10.392ZM145.97 11.633V21H144.032V11.633H145.97ZM159.853 11.48C160.59 11.48 161.247 11.633 161.825 11.939C162.415 12.245 162.874 12.6983 163.202 13.299C163.542 13.8997 163.712 14.625 163.712 15.475V21H161.791V15.764C161.791 14.9253 161.582 14.285 161.162 13.843C160.743 13.3897 160.171 13.163 159.445 13.163C158.72 13.163 158.142 13.3897 157.711 13.843C157.292 14.285 157.082 14.9253 157.082 15.764V21H155.161V15.764C155.161 14.9253 154.952 14.285 154.532 13.843C154.113 13.3897 153.541 13.163 152.815 13.163C152.09 13.163 151.512 13.3897 151.081 13.843C150.662 14.285 150.452 14.9253 150.452 15.764V21H148.514V11.633H150.452V12.704C150.77 12.3187 151.172 12.0183 151.659 11.803C152.147 11.5877 152.668 11.48 153.223 11.48C153.971 11.48 154.64 11.6387 155.229 11.956C155.819 12.2733 156.272 12.7323 156.589 13.333C156.873 12.7663 157.315 12.3187 157.915 11.99C158.516 11.65 159.162 11.48 159.853 11.48ZM168.116 13.01C168.445 12.5793 168.893 12.2167 169.459 11.922C170.026 11.6273 170.666 11.48 171.38 11.48C172.196 11.48 172.939 11.684 173.607 12.092C174.287 12.4887 174.82 13.0497 175.205 13.775C175.591 14.5003 175.783 15.3333 175.783 16.274C175.783 17.2147 175.591 18.059 175.205 18.807C174.82 19.5437 174.287 20.1217 173.607 20.541C172.939 20.949 172.196 21.153 171.38 21.153C170.666 21.153 170.032 21.0113 169.476 20.728C168.921 20.4333 168.468 20.0707 168.116 19.64V25.454H166.178V11.633H168.116V13.01ZM173.811 16.274C173.811 15.628 173.675 15.0727 173.403 14.608C173.143 14.132 172.791 13.775 172.349 13.537C171.919 13.2877 171.454 13.163 170.955 13.163C170.468 13.163 170.003 13.2877 169.561 13.537C169.131 13.7863 168.779 14.149 168.507 14.625C168.247 15.101 168.116 15.662 168.116 16.308C168.116 16.954 168.247 17.5207 168.507 18.008C168.779 18.484 169.131 18.8467 169.561 19.096C170.003 19.3453 170.468 19.47 170.955 19.47C171.454 19.47 171.919 19.3453 172.349 19.096C172.791 18.8353 173.143 18.4613 173.403 17.974C173.675 17.4867 173.811 16.92 173.811 16.274ZM179.638 8.42V21H177.7V8.42H179.638ZM190.614 11.633L184.868 25.403H182.862L184.766 20.847L181.077 11.633H183.236L185.871 18.773L188.608 11.633H190.614ZM195.847 16.274C195.847 15.3333 196.039 14.5003 196.425 13.775C196.821 13.0497 197.354 12.4887 198.023 12.092C198.703 11.684 199.456 11.48 200.284 11.48C200.896 11.48 201.496 11.616 202.086 11.888C202.686 12.1487 203.162 12.5 203.514 12.942V8.42H205.469V21H203.514V19.589C203.196 20.0423 202.754 20.4163 202.188 20.711C201.632 21.0057 200.992 21.153 200.267 21.153C199.451 21.153 198.703 20.949 198.023 20.541C197.354 20.1217 196.821 19.5437 196.425 18.807C196.039 18.059 195.847 17.2147 195.847 16.274ZM203.514 16.308C203.514 15.662 203.378 15.101 203.106 14.625C202.845 14.149 202.499 13.7863 202.069 13.537C201.638 13.2877 201.173 13.163 200.675 13.163C200.176 13.163 199.711 13.2877 199.281 13.537C198.85 13.775 198.499 14.132 198.227 14.608C197.966 15.0727 197.836 15.628 197.836 16.274C197.836 16.92 197.966 17.4867 198.227 17.974C198.499 18.4613 198.85 18.8353 199.281 19.096C199.723 19.3453 200.187 19.47 200.675 19.47C201.173 19.47 201.638 19.3453 202.069 19.096C202.499 18.8467 202.845 18.484 203.106 18.008C203.378 17.5207 203.514 16.954 203.514 16.308ZM216.497 11.633V21H214.559V19.895C214.253 20.2803 213.851 20.5863 213.352 20.813C212.865 21.0283 212.344 21.136 211.788 21.136C211.052 21.136 210.389 20.983 209.799 20.677C209.221 20.371 208.762 19.9177 208.422 19.317C208.094 18.7163 207.929 17.991 207.929 17.141V11.633H209.85V16.852C209.85 17.6907 210.06 18.3367 210.479 18.79C210.899 19.232 211.471 19.453 212.196 19.453C212.922 19.453 213.494 19.232 213.913 18.79C214.344 18.3367 214.559 17.6907 214.559 16.852V11.633H216.497ZM230.393 11.48C231.13 11.48 231.787 11.633 232.365 11.939C232.955 12.245 233.414 12.6983 233.742 13.299C234.082 13.8997 234.252 14.625 234.252 15.475V21H232.331V15.764C232.331 14.9253 232.122 14.285 231.702 13.843C231.283 13.3897 230.711 13.163 229.985 13.163C229.26 13.163 228.682 13.3897 228.251 13.843C227.832 14.285 227.622 14.9253 227.622 15.764V21H225.701V15.764C225.701 14.9253 225.492 14.285 225.072 13.843C224.653 13.3897 224.081 13.163 223.355 13.163C222.63 13.163 222.052 13.3897 221.621 13.843C221.202 14.285 220.992 14.9253 220.992 15.764V21H219.054V11.633H220.992V12.704C221.31 12.3187 221.712 12.0183 222.199 11.803C222.687 11.5877 223.208 11.48 223.763 11.48C224.511 11.48 225.18 11.6387 225.769 11.956C226.359 12.2733 226.812 12.7323 227.129 13.333C227.413 12.7663 227.855 12.3187 228.455 11.99C229.056 11.65 229.702 11.48 230.393 11.48ZM248.057 11.48C248.794 11.48 249.451 11.633 250.029 11.939C250.619 12.245 251.078 12.6983 251.406 13.299C251.746 13.8997 251.916 14.625 251.916 15.475V21H249.995V15.764C249.995 14.9253 249.786 14.285 249.366 13.843C248.947 13.3897 248.375 13.163 247.649 13.163C246.924 13.163 246.346 13.3897 245.915 13.843C245.496 14.285 245.286 14.9253 245.286 15.764V21H243.365V15.764C243.365 14.9253 243.156 14.285 242.736 13.843C242.317 13.3897 241.745 13.163 241.019 13.163C240.294 13.163 239.716 13.3897 239.285 13.843C238.866 14.285 238.656 14.9253 238.656 15.764V21H236.718V11.633H238.656V12.704C238.974 12.3187 239.376 12.0183 239.863 11.803C240.351 11.5877 240.872 11.48 241.427 11.48C242.175 11.48 242.844 11.6387 243.433 11.956C244.023 12.2733 244.476 12.7323 244.793 13.333C245.077 12.7663 245.519 12.3187 246.119 11.99C246.72 11.65 247.366 11.48 248.057 11.48ZM262.814 11.633L257.068 25.403H255.062L256.966 20.847L253.277 11.633H255.436L258.071 18.773L260.808 11.633H262.814ZM270.954 13.214V18.399C270.954 18.7503 271.033 19.0053 271.192 19.164C271.362 19.3113 271.645 19.385 272.042 19.385H273.232V21H271.702C270.829 21 270.161 20.796 269.696 20.388C269.231 19.98 268.999 19.317 268.999 18.399V13.214H267.894V11.633H268.999V9.304H270.954V11.633H273.232V13.214H270.954ZM283.603 16.087C283.603 16.4383 283.58 16.7557 283.535 17.039H276.378C276.435 17.787 276.712 18.3877 277.211 18.841C277.71 19.2943 278.322 19.521 279.047 19.521C280.09 19.521 280.826 19.0847 281.257 18.212H283.348C283.065 19.0733 282.549 19.7817 281.801 20.337C281.064 20.881 280.146 21.153 279.047 21.153C278.152 21.153 277.347 20.9547 276.633 20.558C275.93 20.15 275.375 19.5833 274.967 18.858C274.57 18.1213 274.372 17.2713 274.372 16.308C274.372 15.3447 274.565 14.5003 274.95 13.775C275.347 13.0383 275.896 12.4717 276.599 12.075C277.313 11.6783 278.129 11.48 279.047 11.48C279.931 11.48 280.719 11.6727 281.41 12.058C282.101 12.4433 282.64 12.9873 283.025 13.69C283.41 14.3813 283.603 15.1803 283.603 16.087ZM281.58 15.475C281.569 14.761 281.314 14.1887 280.815 13.758C280.316 13.3273 279.699 13.112 278.962 13.112C278.293 13.112 277.721 13.3273 277.245 13.758C276.769 14.1773 276.486 14.7497 276.395 15.475H281.58ZM289.522 16.257L292.548 21H290.355L288.332 17.821L286.428 21H284.405L287.431 16.393L284.405 11.633H286.598L288.621 14.812L290.525 11.633H292.548L289.522 16.257ZM296.255 13.214V18.399C296.255 18.7503 296.334 19.0053 296.493 19.164C296.663 19.3113 296.946 19.385 297.343 19.385H298.533V21H297.003C296.13 21 295.461 20.796 294.997 20.388C294.532 19.98 294.3 19.317 294.3 18.399V13.214H293.195V11.633H294.3V9.304H296.255V11.633H298.533V13.214H296.255Z" fill="black"/>
<path d="M2.352 45.964H5.768V47H1.078V37.242H2.352V45.964ZM10.467 47.126C9.7483 47.126 9.09497 46.9627 8.50697 46.636C7.9283 46.3093 7.47097 45.8473 7.13497 45.25C6.8083 44.6433 6.64497 43.9433 6.64497 43.15C6.64497 42.366 6.81297 41.6753 7.14897 41.078C7.4943 40.4713 7.96097 40.0093 8.54897 39.692C9.13697 39.3653 9.79497 39.202 10.523 39.202C11.251 39.202 11.909 39.3653 12.497 39.692C13.085 40.0093 13.547 40.4667 13.883 41.064C14.2283 41.6613 14.401 42.3567 14.401 43.15C14.401 43.9433 14.2236 44.6433 13.869 45.25C13.5236 45.8473 13.0523 46.3093 12.455 46.636C11.8576 46.9627 11.195 47.126 10.467 47.126ZM10.467 46.006C10.9243 46.006 11.3536 45.8987 11.755 45.684C12.1563 45.4693 12.4783 45.1473 12.721 44.718C12.973 44.2887 13.099 43.766 13.099 43.15C13.099 42.534 12.9776 42.0113 12.735 41.582C12.4923 41.1527 12.175 40.8353 11.783 40.63C11.391 40.4153 10.9663 40.308 10.509 40.308C10.0423 40.308 9.61297 40.4153 9.22097 40.63C8.8383 40.8353 8.5303 41.1527 8.29697 41.582C8.06364 42.0113 7.94697 42.534 7.94697 43.15C7.94697 43.7753 8.05897 44.3027 8.28297 44.732C8.5163 45.1613 8.8243 45.4833 9.20697 45.698C9.58964 45.9033 10.0096 46.006 10.467 46.006ZM17.35 40.574C17.574 40.1353 17.8914 39.7947 18.302 39.552C18.722 39.3093 19.2307 39.188 19.828 39.188V40.504H19.492C18.064 40.504 17.35 41.2787 17.35 42.828V47H16.076V39.328H17.35V40.574ZM28.2987 42.87C28.2987 43.1127 28.2847 43.3693 28.2567 43.64H22.1247C22.1714 44.396 22.428 44.9887 22.8947 45.418C23.3707 45.838 23.9447 46.048 24.6167 46.048C25.1674 46.048 25.6247 45.922 25.9887 45.67C26.362 45.4087 26.6234 45.0633 26.7727 44.634H28.1447C27.9394 45.3713 27.5287 45.9733 26.9127 46.44C26.2967 46.8973 25.5314 47.126 24.6167 47.126C23.8887 47.126 23.2354 46.9627 22.6567 46.636C22.0874 46.3093 21.6394 45.8473 21.3127 45.25C20.986 44.6433 20.8227 43.9433 20.8227 43.15C20.8227 42.3567 20.9814 41.6613 21.2987 41.064C21.616 40.4667 22.0594 40.0093 22.6287 39.692C23.2074 39.3653 23.87 39.202 24.6167 39.202C25.3447 39.202 25.9887 39.3607 26.5487 39.678C27.1087 39.9953 27.538 40.434 27.8367 40.994C28.1447 41.5447 28.2987 42.17 28.2987 42.87ZM26.9827 42.604C26.9827 42.1187 26.8754 41.7033 26.6607 41.358C26.446 41.0033 26.152 40.7373 25.7787 40.56C25.4147 40.3733 25.0087 40.28 24.5607 40.28C23.9167 40.28 23.366 40.4853 22.9087 40.896C22.4607 41.3067 22.204 41.876 22.1387 42.604H26.9827ZM39.2063 39.188C39.8037 39.188 40.3357 39.314 40.8023 39.566C41.269 39.8087 41.6377 40.1773 41.9083 40.672C42.179 41.1667 42.3143 41.7687 42.3143 42.478V47H41.0543V42.66C41.0543 41.8947 40.863 41.3113 40.4803 40.91C40.107 40.4993 39.5983 40.294 38.9543 40.294C38.2917 40.294 37.7643 40.5087 37.3723 40.938C36.9803 41.358 36.7843 41.9693 36.7843 42.772V47H35.5243V42.66C35.5243 41.8947 35.333 41.3113 34.9503 40.91C34.577 40.4993 34.0683 40.294 33.4243 40.294C32.7617 40.294 32.2343 40.5087 31.8423 40.938C31.4503 41.358 31.2543 41.9693 31.2543 42.772V47H29.9803V39.328H31.2543V40.434C31.5063 40.0327 31.8423 39.7247 32.2623 39.51C32.6917 39.2953 33.163 39.188 33.6763 39.188C34.3203 39.188 34.8897 39.3327 35.3843 39.622C35.879 39.9113 36.2477 40.336 36.4903 40.896C36.705 40.3547 37.0597 39.9347 37.5543 39.636C38.049 39.3373 38.5997 39.188 39.2063 39.188ZM49.4106 37.242V47H48.1366V37.242H49.4106ZM52.8559 40.742C53.1079 40.3033 53.4812 39.9393 53.9759 39.65C54.4799 39.3513 55.0632 39.202 55.7259 39.202C56.4072 39.202 57.0232 39.3653 57.5739 39.692C58.1339 40.0187 58.5726 40.4807 58.8899 41.078C59.2072 41.666 59.3659 42.352 59.3659 43.136C59.3659 43.9107 59.2072 44.6013 58.8899 45.208C58.5726 45.8147 58.1339 46.286 57.5739 46.622C57.0232 46.958 56.4072 47.126 55.7259 47.126C55.0726 47.126 54.4939 46.9813 53.9899 46.692C53.4952 46.3933 53.1172 46.0247 52.8559 45.586V50.64H51.5819V39.328H52.8559V40.742ZM58.0639 43.136C58.0639 42.5573 57.9472 42.0533 57.7139 41.624C57.4806 41.1947 57.1632 40.868 56.7619 40.644C56.3699 40.42 55.9359 40.308 55.4599 40.308C54.9932 40.308 54.5592 40.4247 54.1579 40.658C53.7659 40.882 53.4486 41.2133 53.2059 41.652C52.9726 42.0813 52.8559 42.5807 52.8559 43.15C52.8559 43.7287 52.9726 44.2373 53.2059 44.676C53.4486 45.1053 53.7659 45.4367 54.1579 45.67C54.5592 45.894 54.9932 46.006 55.4599 46.006C55.9359 46.006 56.3699 45.894 56.7619 45.67C57.1632 45.4367 57.4806 45.1053 57.7139 44.676C57.9472 44.2373 58.0639 43.724 58.0639 43.136ZM63.7588 47.126C63.1708 47.126 62.6435 47.028 62.1768 46.832C61.7102 46.6267 61.3415 46.3467 61.0708 45.992C60.8002 45.628 60.6508 45.2127 60.6228 44.746H61.9388C61.9762 45.1287 62.1535 45.4413 62.4708 45.684C62.7975 45.9267 63.2222 46.048 63.7448 46.048C64.2302 46.048 64.6128 45.9407 64.8928 45.726C65.1728 45.5113 65.3128 45.2407 65.3128 44.914C65.3128 44.578 65.1635 44.3307 64.8648 44.172C64.5662 44.004 64.1042 43.8407 63.4788 43.682C62.9095 43.5327 62.4428 43.3833 62.0788 43.234C61.7242 43.0753 61.4162 42.8467 61.1548 42.548C60.9028 42.24 60.7768 41.8387 60.7768 41.344C60.7768 40.952 60.8935 40.5927 61.1268 40.266C61.3602 39.9393 61.6915 39.6827 62.1208 39.496C62.5502 39.3 63.0402 39.202 63.5908 39.202C64.4402 39.202 65.1262 39.4167 65.6488 39.846C66.1715 40.2753 66.4515 40.8633 66.4888 41.61H65.2148C65.1868 41.2087 65.0235 40.8867 64.7248 40.644C64.4355 40.4013 64.0435 40.28 63.5488 40.28C63.0915 40.28 62.7275 40.378 62.4568 40.574C62.1862 40.77 62.0508 41.0267 62.0508 41.344C62.0508 41.596 62.1302 41.806 62.2888 41.974C62.4568 42.1327 62.6622 42.2633 62.9048 42.366C63.1568 42.4593 63.5022 42.5667 63.9408 42.688C64.4915 42.8373 64.9395 42.9867 65.2848 43.136C65.6302 43.276 65.9242 43.4907 66.1668 43.78C66.4188 44.0693 66.5495 44.4473 66.5588 44.914C66.5588 45.334 66.4422 45.712 66.2088 46.048C65.9755 46.384 65.6442 46.65 65.2148 46.846C64.7948 47.0327 64.3095 47.126 63.7588 47.126ZM75.1613 39.328V47H73.8873V45.866C73.6446 46.258 73.304 46.566 72.8653 46.79C72.436 47.0047 71.96 47.112 71.4373 47.112C70.84 47.112 70.3033 46.9907 69.8273 46.748C69.3513 46.496 68.9733 46.1227 68.6933 45.628C68.4226 45.1333 68.2873 44.5313 68.2873 43.822V39.328H69.5473V43.654C69.5473 44.41 69.7386 44.9933 70.1213 45.404C70.504 45.8053 71.0266 46.006 71.6893 46.006C72.3706 46.006 72.9073 45.796 73.2993 45.376C73.6913 44.956 73.8873 44.3447 73.8873 43.542V39.328H75.1613ZM86.5384 39.188C87.1357 39.188 87.6677 39.314 88.1344 39.566C88.601 39.8087 88.9697 40.1773 89.2404 40.672C89.511 41.1667 89.6464 41.7687 89.6464 42.478V47H88.3864V42.66C88.3864 41.8947 88.195 41.3113 87.8124 40.91C87.439 40.4993 86.9304 40.294 86.2864 40.294C85.6237 40.294 85.0964 40.5087 84.7044 40.938C84.3124 41.358 84.1164 41.9693 84.1164 42.772V47H82.8564V42.66C82.8564 41.8947 82.665 41.3113 82.2824 40.91C81.909 40.4993 81.4004 40.294 80.7564 40.294C80.0937 40.294 79.5664 40.5087 79.1744 40.938C78.7824 41.358 78.5864 41.9693 78.5864 42.772V47H77.3124V39.328H78.5864V40.434C78.8384 40.0327 79.1744 39.7247 79.5944 39.51C80.0237 39.2953 80.495 39.188 81.0084 39.188C81.6524 39.188 82.2217 39.3327 82.7164 39.622C83.211 39.9113 83.5797 40.336 83.8224 40.896C84.037 40.3547 84.3917 39.9347 84.8864 39.636C85.381 39.3373 85.9317 39.188 86.5384 39.188ZM96.1266 38.082C95.884 38.082 95.6786 37.998 95.5106 37.83C95.3426 37.662 95.2586 37.4567 95.2586 37.214C95.2586 36.9713 95.3426 36.766 95.5106 36.598C95.6786 36.43 95.884 36.346 96.1266 36.346C96.36 36.346 96.556 36.43 96.7146 36.598C96.8826 36.766 96.9666 36.9713 96.9666 37.214C96.9666 37.4567 96.8826 37.662 96.7146 37.83C96.556 37.998 96.36 38.082 96.1266 38.082ZM96.7426 39.328V47H95.4686V39.328H96.7426ZM101.63 47.126C101.042 47.126 100.515 47.028 100.048 46.832C99.5813 46.6267 99.2126 46.3467 98.9419 45.992C98.6713 45.628 98.5219 45.2127 98.4939 44.746H99.8099C99.8473 45.1287 100.025 45.4413 100.342 45.684C100.669 45.9267 101.093 46.048 101.616 46.048C102.101 46.048 102.484 45.9407 102.764 45.726C103.044 45.5113 103.184 45.2407 103.184 44.914C103.184 44.578 103.035 44.3307 102.736 44.172C102.437 44.004 101.975 43.8407 101.35 43.682C100.781 43.5327 100.314 43.3833 99.9499 43.234C99.5953 43.0753 99.2873 42.8467 99.0259 42.548C98.7739 42.24 98.6479 41.8387 98.6479 41.344C98.6479 40.952 98.7646 40.5927 98.9979 40.266C99.2313 39.9393 99.5626 39.6827 99.9919 39.496C100.421 39.3 100.911 39.202 101.462 39.202C102.311 39.202 102.997 39.4167 103.52 39.846C104.043 40.2753 104.323 40.8633 104.36 41.61H103.086C103.058 41.2087 102.895 40.8867 102.596 40.644C102.307 40.4013 101.915 40.28 101.42 40.28C100.963 40.28 100.599 40.378 100.328 40.574C100.057 40.77 99.9219 41.0267 99.9219 41.344C99.9219 41.596 100.001 41.806 100.16 41.974C100.328 42.1327 100.533 42.2633 100.776 42.366C101.028 42.4593 101.373 42.5667 101.812 42.688C102.363 42.8373 102.811 42.9867 103.156 43.136C103.501 43.276 103.795 43.4907 104.038 43.78C104.29 44.0693 104.421 44.4473 104.43 44.914C104.43 45.334 104.313 45.712 104.08 46.048C103.847 46.384 103.515 46.65 103.086 46.846C102.666 47.0327 102.181 47.126 101.63 47.126ZM112.677 47.126C112.089 47.126 111.561 47.028 111.095 46.832C110.628 46.6267 110.259 46.3467 109.989 45.992C109.718 45.628 109.569 45.2127 109.541 44.746H110.857C110.894 45.1287 111.071 45.4413 111.389 45.684C111.715 45.9267 112.14 46.048 112.663 46.048C113.148 46.048 113.531 45.9407 113.811 45.726C114.091 45.5113 114.231 45.2407 114.231 44.914C114.231 44.578 114.081 44.3307 113.783 44.172C113.484 44.004 113.022 43.8407 112.397 43.682C111.827 43.5327 111.361 43.3833 110.997 43.234C110.642 43.0753 110.334 42.8467 110.073 42.548C109.821 42.24 109.695 41.8387 109.695 41.344C109.695 40.952 109.811 40.5927 110.045 40.266C110.278 39.9393 110.609 39.6827 111.039 39.496C111.468 39.3 111.958 39.202 112.509 39.202C113.358 39.202 114.044 39.4167 114.567 39.846C115.089 40.2753 115.369 40.8633 115.407 41.61H114.133C114.105 41.2087 113.941 40.8867 113.643 40.644C113.353 40.4013 112.961 40.28 112.467 40.28C112.009 40.28 111.645 40.378 111.375 40.574C111.104 40.77 110.969 41.0267 110.969 41.344C110.969 41.596 111.048 41.806 111.207 41.974C111.375 42.1327 111.58 42.2633 111.823 42.366C112.075 42.4593 112.42 42.5667 112.859 42.688C113.409 42.8373 113.857 42.9867 114.203 43.136C114.548 43.276 114.842 43.4907 115.085 43.78C115.337 44.0693 115.467 44.4473 115.477 44.914C115.477 45.334 115.36 45.712 115.127 46.048C114.893 46.384 114.562 46.65 114.133 46.846C113.713 47.0327 113.227 47.126 112.677 47.126ZM117.933 38.082C117.691 38.082 117.485 37.998 117.317 37.83C117.149 37.662 117.065 37.4567 117.065 37.214C117.065 36.9713 117.149 36.766 117.317 36.598C117.485 36.43 117.691 36.346 117.933 36.346C118.167 36.346 118.363 36.43 118.521 36.598C118.689 36.766 118.773 36.9713 118.773 37.214C118.773 37.4567 118.689 37.662 118.521 37.83C118.363 37.998 118.167 38.082 117.933 38.082ZM118.549 39.328V47H117.275V39.328H118.549ZM129.947 39.188C130.544 39.188 131.076 39.314 131.543 39.566C132.009 39.8087 132.378 40.1773 132.649 40.672C132.919 41.1667 133.055 41.7687 133.055 42.478V47H131.795V42.66C131.795 41.8947 131.603 41.3113 131.221 40.91C130.847 40.4993 130.339 40.294 129.695 40.294C129.032 40.294 128.505 40.5087 128.113 40.938C127.721 41.358 127.525 41.9693 127.525 42.772V47H126.265V42.66C126.265 41.8947 126.073 41.3113 125.691 40.91C125.317 40.4993 124.809 40.294 124.165 40.294C123.502 40.294 122.975 40.5087 122.583 40.938C122.191 41.358 121.995 41.9693 121.995 42.772V47H120.721V39.328H121.995V40.434C122.247 40.0327 122.583 39.7247 123.003 39.51C123.432 39.2953 123.903 39.188 124.417 39.188C125.061 39.188 125.63 39.3327 126.125 39.622C126.619 39.9113 126.988 40.336 127.231 40.896C127.445 40.3547 127.8 39.9347 128.295 39.636C128.789 39.3373 129.34 39.188 129.947 39.188ZM136.418 40.742C136.67 40.3033 137.044 39.9393 137.538 39.65C138.042 39.3513 138.626 39.202 139.288 39.202C139.97 39.202 140.586 39.3653 141.136 39.692C141.696 40.0187 142.135 40.4807 142.452 41.078C142.77 41.666 142.928 42.352 142.928 43.136C142.928 43.9107 142.77 44.6013 142.452 45.208C142.135 45.8147 141.696 46.286 141.136 46.622C140.586 46.958 139.97 47.126 139.288 47.126C138.635 47.126 138.056 46.9813 137.552 46.692C137.058 46.3933 136.68 46.0247 136.418 45.586V50.64H135.144V39.328H136.418V40.742ZM141.626 43.136C141.626 42.5573 141.51 42.0533 141.276 41.624C141.043 41.1947 140.726 40.868 140.324 40.644C139.932 40.42 139.498 40.308 139.022 40.308C138.556 40.308 138.122 40.4247 137.72 40.658C137.328 40.882 137.011 41.2133 136.768 41.652C136.535 42.0813 136.418 42.5807 136.418 43.15C136.418 43.7287 136.535 44.2373 136.768 44.676C137.011 45.1053 137.328 45.4367 137.72 45.67C138.122 45.894 138.556 46.006 139.022 46.006C139.498 46.006 139.932 45.894 140.324 45.67C140.726 45.4367 141.043 45.1053 141.276 44.676C141.51 44.2373 141.626 43.724 141.626 43.136ZM145.879 36.64V47H144.605V36.64H145.879ZM154.659 39.328L150.039 50.612H148.723L150.235 46.916L147.141 39.328H148.555L150.963 45.544L153.343 39.328H154.659ZM159.196 43.136C159.196 42.352 159.354 41.666 159.672 41.078C159.989 40.4807 160.423 40.0187 160.974 39.692C161.534 39.3653 162.159 39.202 162.85 39.202C163.447 39.202 164.002 39.342 164.516 39.622C165.029 39.8927 165.421 40.252 165.692 40.7V36.64H166.98V47H165.692V45.558C165.44 46.0153 165.066 46.3933 164.572 46.692C164.077 46.9813 163.498 47.126 162.836 47.126C162.154 47.126 161.534 46.958 160.974 46.622C160.423 46.286 159.989 45.8147 159.672 45.208C159.354 44.6013 159.196 43.9107 159.196 43.136ZM165.692 43.15C165.692 42.5713 165.575 42.0673 165.342 41.638C165.108 41.2087 164.791 40.882 164.39 40.658C163.998 40.4247 163.564 40.308 163.088 40.308C162.612 40.308 162.178 40.42 161.786 40.644C161.394 40.868 161.081 41.1947 160.848 41.624C160.614 42.0533 160.498 42.5573 160.498 43.136C160.498 43.724 160.614 44.2373 160.848 44.676C161.081 45.1053 161.394 45.4367 161.786 45.67C162.178 45.894 162.612 46.006 163.088 46.006C163.564 46.006 163.998 45.894 164.39 45.67C164.791 45.4367 165.108 45.1053 165.342 44.676C165.575 44.2373 165.692 43.7287 165.692 43.15ZM175.937 39.328V47H174.663V45.866C174.42 46.258 174.079 46.566 173.641 46.79C173.211 47.0047 172.735 47.112 172.213 47.112C171.615 47.112 171.079 46.9907 170.603 46.748C170.127 46.496 169.749 46.1227 169.469 45.628C169.198 45.1333 169.063 44.5313 169.063 43.822V39.328H170.323V43.654C170.323 44.41 170.514 44.9933 170.897 45.404C171.279 45.8053 171.802 46.006 172.465 46.006C173.146 46.006 173.683 45.796 174.075 45.376C174.467 44.956 174.663 44.3447 174.663 43.542V39.328H175.937ZM187.314 39.188C187.911 39.188 188.443 39.314 188.91 39.566C189.376 39.8087 189.745 40.1773 190.016 40.672C190.286 41.1667 190.422 41.7687 190.422 42.478V47H189.162V42.66C189.162 41.8947 188.97 41.3113 188.588 40.91C188.214 40.4993 187.706 40.294 187.062 40.294C186.399 40.294 185.872 40.5087 185.48 40.938C185.088 41.358 184.892 41.9693 184.892 42.772V47H183.632V42.66C183.632 41.8947 183.44 41.3113 183.058 40.91C182.684 40.4993 182.176 40.294 181.532 40.294C180.869 40.294 180.342 40.5087 179.95 40.938C179.558 41.358 179.362 41.9693 179.362 42.772V47H178.088V39.328H179.362V40.434C179.614 40.0327 179.95 39.7247 180.37 39.51C180.799 39.2953 181.27 39.188 181.784 39.188C182.428 39.188 182.997 39.3327 183.492 39.622C183.986 39.9113 184.355 40.336 184.598 40.896C184.812 40.3547 185.167 39.9347 185.662 39.636C186.156 39.3373 186.707 39.188 187.314 39.188ZM201.738 39.188C202.335 39.188 202.867 39.314 203.334 39.566C203.8 39.8087 204.169 40.1773 204.44 40.672C204.71 41.1667 204.846 41.7687 204.846 42.478V47H203.586V42.66C203.586 41.8947 203.394 41.3113 203.012 40.91C202.638 40.4993 202.13 40.294 201.486 40.294C200.823 40.294 200.296 40.5087 199.904 40.938C199.512 41.358 199.316 41.9693 199.316 42.772V47H198.056V42.66C198.056 41.8947 197.864 41.3113 197.482 40.91C197.108 40.4993 196.6 40.294 195.956 40.294C195.293 40.294 194.766 40.5087 194.374 40.938C193.982 41.358 193.786 41.9693 193.786 42.772V47H192.512V39.328H193.786V40.434C194.038 40.0327 194.374 39.7247 194.794 39.51C195.223 39.2953 195.694 39.188 196.208 39.188C196.852 39.188 197.421 39.3327 197.916 39.622C198.41 39.9113 198.779 40.336 199.022 40.896C199.236 40.3547 199.591 39.9347 200.086 39.636C200.58 39.3373 201.131 39.188 201.738 39.188ZM213.543 39.328L208.923 50.612H207.607L209.119 46.916L206.025 39.328H207.439L209.847 45.544L212.227 39.328H213.543ZM220.111 40.378V44.9C220.111 45.2733 220.19 45.5393 220.349 45.698C220.507 45.8473 220.783 45.922 221.175 45.922H222.113V47H220.965C220.255 47 219.723 46.8367 219.369 46.51C219.014 46.1833 218.837 45.6467 218.837 44.9V40.378H217.843V39.328H218.837V37.396H220.111V39.328H222.113V40.378H220.111ZM230.656 42.87C230.656 43.1127 230.642 43.3693 230.614 43.64H224.482C224.529 44.396 224.785 44.9887 225.252 45.418C225.728 45.838 226.302 46.048 226.974 46.048C227.525 46.048 227.982 45.922 228.346 45.67C228.719 45.4087 228.981 45.0633 229.13 44.634H230.502C230.297 45.3713 229.886 45.9733 229.27 46.44C228.654 46.8973 227.889 47.126 226.974 47.126C226.246 47.126 225.593 46.9627 225.014 46.636C224.445 46.3093 223.997 45.8473 223.67 45.25C223.343 44.6433 223.18 43.9433 223.18 43.15C223.18 42.3567 223.339 41.6613 223.656 41.064C223.973 40.4667 224.417 40.0093 224.986 39.692C225.565 39.3653 226.227 39.202 226.974 39.202C227.702 39.202 228.346 39.3607 228.906 39.678C229.466 39.9953 229.895 40.434 230.194 40.994C230.502 41.5447 230.656 42.17 230.656 42.87ZM229.34 42.604C229.34 42.1187 229.233 41.7033 229.018 41.358C228.803 41.0033 228.509 40.7373 228.136 40.56C227.772 40.3733 227.366 40.28 226.918 40.28C226.274 40.28 225.723 40.4853 225.266 40.896C224.818 41.3067 224.561 41.876 224.496 42.604H229.34ZM236.342 47L234.522 44.144L232.772 47H231.442L233.92 43.192L231.442 39.328H232.884L234.704 42.17L236.44 39.328H237.77L235.306 43.122L237.784 47H236.342ZM240.591 40.378V44.9C240.591 45.2733 240.67 45.5393 240.829 45.698C240.988 45.8473 241.263 45.922 241.655 45.922H242.593V47H241.445C240.736 47 240.204 46.8367 239.849 46.51C239.494 46.1833 239.317 45.6467 239.317 44.9V40.378H238.323V39.328H239.317V37.396H240.591V39.328H242.593V40.378H240.591Z" fill="#868686"/>
</svg>
